<svg width="143" height="24" viewBox="0 0 143 24" fill="none" xmlns="http://www.w3.org/2000/svg">
<path d="M0.656 0.599998H10.832C13.264 0.599998 15.408 1.06933 17.264 2.008C19.1413 2.92533 20.592 4.22667 21.616 5.912C22.6613 7.59733 23.184 9.56 23.184 11.8C23.184 14.04 22.6613 16.0027 21.616 17.688C20.592 19.3733 19.1413 20.6853 17.264 21.624C15.408 22.5413 13.264 23 10.832 23H0.656V0.599998ZM10.576 18.744C12.816 18.744 14.5973 18.1253 15.92 16.888C17.264 15.6293 17.936 13.9333 17.936 11.8C17.936 9.66667 17.264 7.98133 15.92 6.744C14.5973 5.48533 12.816 4.856 10.576 4.856H5.84V18.744H10.576ZM44.4375 18.84V23H27.0935V0.599998H44.0215V4.76H32.2455V9.624H42.6455V13.656H32.2455V18.84H44.4375ZM69.7858 0.599998L60.0898 23H54.9698L45.3057 0.599998H50.9058L57.7218 16.6L64.6338 0.599998H69.7858ZM89 18.84V23H71.656V0.599998H88.584V4.76H76.808V9.624H87.208V13.656H76.808V18.84H89ZM113.669 0.599998V23H109.413L98.2448 9.4V23H93.1248V0.599998H97.4128L108.549 14.2V0.599998H113.669ZM129.817 23.384C127.491 23.384 125.39 22.8827 123.513 21.88C121.657 20.8773 120.195 19.5013 119.129 17.752C118.083 15.9813 117.561 13.9973 117.561 11.8C117.561 9.60267 118.083 7.62933 119.129 5.88C120.195 4.10933 121.657 2.72267 123.513 1.72C125.39 0.717333 127.491 0.216 129.817 0.216C132.142 0.216 134.233 0.717333 136.089 1.72C137.945 2.72267 139.406 4.10933 140.473 5.88C141.539 7.62933 142.073 9.60267 142.073 11.8C142.073 13.9973 141.539 15.9813 140.473 17.752C139.406 19.5013 137.945 20.8773 136.089 21.88C134.233 22.8827 132.142 23.384 129.817 23.384ZM129.817 18.968C131.139 18.968 132.334 18.6693 133.401 18.072C134.467 17.4533 135.299 16.6 135.897 15.512C136.515 14.424 136.825 13.1867 136.825 11.8C136.825 10.4133 136.515 9.176 135.897 8.088C135.299 7 134.467 6.15733 133.401 5.56C132.334 4.94133 131.139 4.632 129.817 4.632C128.494 4.632 127.299 4.94133 126.233 5.56C125.166 6.15733 124.323 7 123.705 8.088C123.107 9.176 122.809 10.4133 122.809 11.8C122.809 13.1867 123.107 14.424 123.705 15.512C124.323 16.6 125.166 17.4533 126.233 18.072C127.299 18.6693 128.494 18.968 129.817 18.968Z" fill="white"/>
</svg>
