<svg width="218" height="40" viewBox="0 0 218 40" fill="none" xmlns="http://www.w3.org/2000/svg">
<path d="M0.808824 1.27206H14.7316C17.8713 1.27206 20.2647 1.51225 21.9118 1.99265C24.125 2.64461 26.0208 3.8027 27.5993 5.46691C29.1777 7.13113 30.3787 9.17279 31.2022 11.5919C32.0257 13.9939 32.4375 16.962 32.4375 20.4963C32.4375 23.6017 32.0515 26.2782 31.2794 28.5257C30.3358 31.2708 28.989 33.4926 27.239 35.1912C25.9179 36.4779 24.1336 37.4816 21.886 38.2022C20.2047 38.7341 17.9571 39 15.1434 39H0.808824V1.27206ZM8.42647 7.65441V32.6434H14.114C16.2414 32.6434 17.777 32.5233 18.7206 32.2831C19.9559 31.9743 20.9767 31.451 21.7831 30.7132C22.6066 29.9755 23.2757 28.7659 23.7904 27.0846C24.3051 25.386 24.5625 23.0784 24.5625 20.1618C24.5625 17.2451 24.3051 15.0061 23.7904 13.4449C23.2757 11.8836 22.5551 10.6654 21.6287 9.79044C20.7022 8.91544 19.527 8.32353 18.1029 8.01471C17.0392 7.77451 14.9547 7.65441 11.8493 7.65441H8.42647ZM38.9228 39V1.27206H66.8971V7.65441H46.5404V16.0184H65.4816V22.375H46.5404V32.6434H67.6176V39H38.9228ZM83.7022 39L70.2169 1.27206H78.4779L88.0257 29.1949L97.2647 1.27206H105.346L91.8346 39H83.7022ZM109.232 39V1.27206H137.206V7.65441H116.849V16.0184H135.79V22.375H116.849V32.6434H137.926V39H109.232ZM144.463 39V1.27206H151.875L167.316 26.4669V1.27206H174.393V39H166.75L151.54 14.3971V39H144.463ZM180.93 20.3676C180.93 16.5245 181.505 13.299 182.654 10.6912C183.512 8.76961 184.679 7.04534 186.154 5.51838C187.647 3.99142 189.277 2.85907 191.044 2.12132C193.395 1.12623 196.105 0.628676 199.176 0.628676C204.735 0.628676 209.179 2.35294 212.507 5.80147C215.853 9.25 217.526 14.0453 217.526 20.1875C217.526 26.2782 215.87 31.0478 212.559 34.4963C209.248 37.9277 204.821 39.6434 199.279 39.6434C193.669 39.6434 189.208 37.9363 185.897 34.5221C182.586 31.0907 180.93 26.3725 180.93 20.3676ZM188.779 20.1103C188.779 24.3824 189.766 27.625 191.739 29.8382C193.712 32.0343 196.217 33.1324 199.254 33.1324C202.29 33.1324 204.778 32.0429 206.717 29.864C208.673 27.6679 209.651 24.3824 209.651 20.0074C209.651 15.6838 208.699 12.4583 206.794 10.3309C204.907 8.20343 202.393 7.13971 199.254 7.13971C196.114 7.13971 193.583 8.22059 191.662 10.3824C189.74 12.527 188.779 15.7696 188.779 20.1103Z" fill="#333333"/>
</svg>
