<svg width="18" height="10" viewBox="0 0 18 10" fill="none" xmlns="http://www.w3.org/2000/svg">
<path d="M16.9825 0.710729C17.0992 0.323229 16.9825 0.0390625 16.4309 0.0390625H14.6034C14.1384 0.0390625 13.9259 0.284896 13.8092 0.554896C13.8092 0.554896 12.88 2.82073 11.5634 4.2899C11.1384 4.7174 10.9442 4.8524 10.7125 4.8524C10.5967 4.8524 10.4284 4.7174 10.4284 4.3299V0.710729C10.4284 0.245729 10.2942 0.0390625 9.90669 0.0390625H7.03502C6.74502 0.0390625 6.57002 0.254063 6.57002 0.459063C6.57002 0.899063 7.22835 1.00073 7.29585 2.24073V4.93073C7.29585 5.5199 7.19002 5.6274 6.95669 5.6274C6.33752 5.6274 4.83085 3.35323 3.93669 0.749896C3.76252 0.244063 3.58669 0.0398962 3.12002 0.0398962H1.29335C0.770854 0.0398962 0.666687 0.285729 0.666687 0.55573C0.666687 1.04073 1.28585 3.44073 3.55085 6.6149C5.06085 8.7824 7.18669 9.9574 9.12335 9.9574C10.2842 9.9574 10.4275 9.69656 10.4275 9.24656V7.60823C10.4275 7.08656 10.5384 6.98156 10.9059 6.98156C11.1759 6.98156 11.6409 7.11823 12.725 8.1624C13.9634 9.40073 14.1684 9.95656 14.8642 9.95656H16.6909C17.2125 9.95656 17.4734 9.69573 17.3234 9.18073C17.1592 8.66823 16.5675 7.9224 15.7825 7.0399C15.3559 6.53656 14.7184 5.9949 14.5242 5.72406C14.2534 5.3749 14.3317 5.22073 14.5242 4.91073C14.525 4.91156 16.7509 1.77656 16.9825 0.710729Z" fill="#333333"/>
</svg>
