<svg width="20" height="20" viewBox="0 0 20 20" fill="none" xmlns="http://www.w3.org/2000/svg">
<path d="M19.7025 4.11366C19.0067 4.42199 18.2592 4.63033 17.4733 4.72449C18.2842 4.23932 18.8908 3.47572 19.18 2.57616C18.4182 3.02865 17.5844 3.34716 16.715 3.51783C16.1303 2.89355 15.3559 2.47977 14.5119 2.34072C13.668 2.20168 12.8017 2.34515 12.0477 2.74887C11.2936 3.15259 10.694 3.79396 10.3418 4.57341C9.9896 5.35287 9.9046 6.22679 10.1 7.05949C8.5564 6.98199 7.04635 6.58079 5.66784 5.88192C4.28934 5.18304 3.07319 4.20213 2.09832 3.00283C1.76499 3.57783 1.57332 4.24449 1.57332 4.95449C1.57295 5.59366 1.73035 6.22303 2.03155 6.78677C2.33276 7.35051 2.76846 7.83119 3.29999 8.18616C2.68355 8.16655 2.08072 7.99998 1.54166 7.70033V7.75033C1.54159 8.64678 1.85168 9.51564 2.41931 10.2095C2.98693 10.9033 3.77713 11.3794 4.65582 11.557C4.08398 11.7118 3.48444 11.7346 2.90249 11.6237C3.1504 12.395 3.63332 13.0695 4.28363 13.5528C4.93394 14.036 5.71909 14.3038 6.52916 14.3187C5.15402 15.3982 3.45573 15.9837 1.70749 15.9812C1.39781 15.9812 1.08839 15.9632 0.780823 15.927C2.55539 17.068 4.62111 17.6735 6.73082 17.6712C13.8725 17.6712 17.7767 11.7562 17.7767 6.62616C17.7767 6.45949 17.7725 6.29116 17.765 6.12449C18.5244 5.57531 19.1799 4.89524 19.7008 4.11616L19.7025 4.11366Z" fill="#333333"/>
</svg>
