<svg width="20" height="20" viewBox="0 0 20 20" fill="none" xmlns="http://www.w3.org/2000/svg">
<path d="M9.145 13.3434C7.86916 13.2101 6.71833 12.8934 5.73333 12.1176C5.61083 12.0209 5.48416 11.9276 5.37333 11.8201C4.94166 11.4034 4.89833 10.9251 5.24 10.4334C5.53166 10.0118 6.02166 9.89925 6.53083 10.1418C6.62916 10.1876 6.7225 10.2468 6.81333 10.3093C8.64916 11.5793 11.1717 11.6143 13.0142 10.3668C13.1975 10.2251 13.3925 10.1101 13.6183 10.0518C14.0583 9.93842 14.4683 10.1009 14.7042 10.4884C14.9742 10.9301 14.9708 11.3634 14.6383 11.7059C14.1292 12.2334 13.5158 12.6143 12.835 12.8801C12.1908 13.1318 11.485 13.2584 10.7875 13.3418C10.8925 13.4576 10.9425 13.5143 11.0083 13.5809C11.9558 14.5393 12.9083 15.4951 13.8533 16.4567C14.175 16.7851 14.2425 17.1909 14.065 17.5726C13.8708 17.9893 13.4375 18.2634 13.0117 18.2342C12.7425 18.2151 12.5325 18.0801 12.345 17.8909C11.63 17.1659 10.9017 16.4542 10.2008 15.7159C9.99666 15.5009 9.89833 15.5417 9.71833 15.7284C8.99916 16.4742 8.26833 17.2084 7.53166 17.9392C7.20166 18.2667 6.80833 18.3259 6.425 18.1393C6.01833 17.9393 5.75833 17.5218 5.77916 17.1009C5.7925 16.8159 5.93166 16.5993 6.12583 16.4043C7.06416 15.4609 7.99916 14.5151 8.935 13.5709C8.99666 13.5076 9.055 13.4409 9.145 13.3434Z" fill="#333333"/>
<path d="M9.92249 10.0588C7.64582 10.0505 5.77916 8.15048 5.79166 5.85382C5.80499 3.53215 7.67332 1.66215 9.97249 1.66798C12.2758 1.67382 14.125 3.57215 14.1142 5.91798C14.1017 8.20965 12.2225 10.0663 9.92249 10.0588ZM11.9917 5.85882C11.9932 5.59045 11.9417 5.32442 11.8401 5.07603C11.7385 4.82763 11.5888 4.60177 11.3996 4.41142C11.2104 4.22107 10.9854 4.06999 10.7377 3.96686C10.4899 3.86373 10.2242 3.81059 9.95582 3.81048C9.68493 3.81022 9.41669 3.86394 9.16679 3.9685C8.91688 4.07306 8.69031 4.22637 8.50032 4.41947C8.31032 4.61257 8.1607 4.84159 8.06021 5.09315C7.95971 5.34472 7.91034 5.61379 7.91499 5.88465C7.91531 6.15313 7.96873 6.41889 8.07218 6.66663C8.17563 6.91438 8.32705 7.13922 8.51775 7.32821C8.70844 7.5172 8.93463 7.6666 9.18329 7.76782C9.43196 7.86904 9.69819 7.92007 9.96666 7.91798C10.2351 7.91701 10.5007 7.86287 10.7482 7.75867C10.9956 7.65447 11.2199 7.50229 11.4082 7.31091C11.5965 7.11953 11.745 6.89275 11.8451 6.64365C11.9453 6.39456 11.9951 6.1281 11.9917 5.85965V5.85882Z" fill="#333333"/>
</svg>
