<svg width="20" height="20" viewBox="0 0 20 20" fill="none" xmlns="http://www.w3.org/2000/svg">
<path d="M4.23083 7.87917C4.23083 7.23084 4.34416 6.61834 4.56749 6.04667C4.78087 5.49142 5.09789 4.98181 5.50166 4.545C5.90461 4.11393 6.36572 3.74117 6.87166 3.4375C7.39076 3.12346 7.95274 2.88654 8.53999 2.73417C9.13434 2.5781 9.74634 2.4994 10.3608 2.5C11.31 2.5 12.1933 2.70084 13.0125 3.10084C13.821 3.49354 14.5091 4.09621 15.005 4.84584C15.5167 5.60834 15.7708 6.47084 15.7708 7.4325C15.7708 8.00917 15.7142 8.57334 15.5983 9.125C15.4846 9.67636 15.3038 10.2117 15.06 10.7192C14.8276 11.2104 14.5238 11.6645 14.1583 12.0667C13.7911 12.4625 13.3463 12.7785 12.8517 12.995C12.3147 13.2303 11.7338 13.3488 11.1475 13.3425C10.74 13.3425 10.3333 13.2467 9.93166 13.0542C9.52999 12.8625 9.24166 12.5992 9.06833 12.2617C9.00749 12.4958 8.92416 12.8342 8.81333 13.2767C8.70666 13.7183 8.63499 14.0033 8.60333 14.1325C8.56999 14.2608 8.50833 14.475 8.41833 14.7717C8.35729 14.9911 8.27899 15.2054 8.18416 15.4125L7.89749 15.9742C7.77352 16.2152 7.63493 16.4484 7.48249 16.6725C7.33166 16.8908 7.14499 17.1517 6.92249 17.4517L6.79833 17.4958L6.71583 17.4058C6.62666 16.4617 6.58083 15.8967 6.58083 15.71C6.58083 15.1575 6.64666 14.5375 6.77666 13.8492C6.90416 13.1617 7.10583 12.2975 7.37666 11.2583C7.64749 10.22 7.80249 9.60917 7.84416 9.42834C7.65333 9.03917 7.55666 8.53084 7.55666 7.90584C7.55666 7.40667 7.71249 6.93917 8.02499 6.49917C8.33833 6.06084 8.73416 5.84167 9.21416 5.84167C9.58166 5.84167 9.86666 5.96334 10.0708 6.2075C10.2758 6.45084 10.3758 6.7575 10.3758 7.13167C10.3758 7.52834 10.2442 8.1025 9.97916 8.85334C9.71416 9.605 9.58249 10.1658 9.58249 10.5383C9.58249 10.9158 9.71749 11.2317 9.98749 11.4792C10.2539 11.7268 10.6063 11.861 10.97 11.8533C11.3 11.8533 11.6058 11.7783 11.89 11.6275C12.1697 11.4811 12.4118 11.272 12.5975 11.0167C13.0018 10.4619 13.2901 9.83128 13.445 9.1625C13.525 8.81084 13.5867 8.47667 13.625 8.1625C13.6658 7.84667 13.6833 7.54834 13.6833 7.265C13.6833 6.22584 13.3533 5.41584 12.6975 4.83584C12.0383 4.25584 11.18 3.9675 10.1242 3.9675C8.92333 3.9675 7.91916 4.35584 7.11499 5.135C6.30999 5.91167 5.90499 6.89917 5.90499 8.09667C5.90499 8.36084 5.94499 8.61584 6.02083 8.8625C6.09499 9.10834 6.17583 9.30417 6.26333 9.44917C6.34999 9.59167 6.43166 9.73084 6.50583 9.85917C6.58083 9.9875 6.61999 10.0792 6.61999 10.1342C6.61999 10.3025 6.57583 10.5217 6.48666 10.7925C6.39416 11.0633 6.28499 11.1983 6.15333 11.1983C6.14083 11.1983 6.08916 11.1892 5.99916 11.17C5.68746 11.0769 5.40597 10.903 5.18333 10.6658C4.94702 10.42 4.76054 10.1308 4.63416 9.81417C4.50814 9.49863 4.40999 9.17266 4.34083 8.84C4.2661 8.52524 4.22918 8.20268 4.23083 7.87917Z" fill="#333333"/>
</svg>
