<svg width="20" height="20" viewBox="0 0 20 20" fill="none" xmlns="http://www.w3.org/2000/svg">
<path d="M2.14285 7.23031L9.75285 11.1882C9.82919 11.2279 9.91396 11.2486 10 11.2486C10.086 11.2486 10.1708 11.2279 10.2471 11.1882L17.8571 7.23103V14.106C17.8572 14.699 17.6303 15.2695 17.2231 15.7005C16.8159 16.1315 16.2591 16.3903 15.6671 16.4239L15.5357 16.4275H4.46428C3.87133 16.4275 3.30083 16.2006 2.86983 15.7934C2.43883 15.3862 2.17999 14.8295 2.14642 14.2375L2.14285 14.106V7.23031ZM4.46428 3.57031H15.5357C16.1287 3.57027 16.6992 3.79714 17.1302 4.20436C17.5612 4.61159 17.82 5.16831 17.8536 5.76031L17.8571 5.89174V6.02317L10 10.1089L2.14285 6.02317V5.89174C2.14281 5.29879 2.36968 4.72829 2.7769 4.29729C3.18413 3.86629 3.74085 3.60745 4.33285 3.57388L4.46428 3.57031H15.5357H4.46428Z" fill="#333333"/>
</svg>
